#N canvas 0 48 1364 702 10;
#X obj 29 283 mindflex, f 42;
#X msg 28 103 search;
#X floatatom 58 514 5 0 0 0 - - -, f 5;
#X msg 86 251 stop;
#X msg 80 179 activate;
#X msg 43 127 connect 0;
#X msg 59 152 connect_dev 10:14:07:01:11:67;
#X msg 86 216 bang, f 5;
#X text 24 26 Mindflex function Connects to the MindFlex or Mindwave
bluettoth interface;
#X text 91 101 scan for bluetooths interface and print;
#X text 134 126 connects to the device listed;
#X text 281 153 connects to the device specified by the bluetooth identifier
;
#X text 162 180 Activates the Mindflex interface and switches the ASIC
operation mode;
#X text 136 217 starts receveing the signal;
#X text 130 250 stops receiving the signal;
#X floatatom 29 540 5 0 0 0 - - -, f 5;
#X floatatom 87 488 5 0 0 0 - - -, f 5;
#X floatatom 116 453 5 0 0 0 - - -, f 5;
#X floatatom 145 432 5 0 0 0 - - -, f 5;
#X floatatom 174 411 5 0 0 0 - - -, f 5;
#X floatatom 203 390 5 0 0 0 - - -, f 5;
#X floatatom 232 369 5 0 0 0 - - -, f 5;
#X floatatom 261 348 5 0 0 0 - - -, f 5;
#X floatatom 290 327 5 0 0 0 - - -, f 5;
#X floatatom 320 307 5 0 0 0 - - -, f 5;
#X text 106 516 Attention Level 0-100;
#X text 73 541 Raw Data -32768 32767 (-1024 1023);
#X text 137 488 Meditation Level 0-100;
#X text 161 454 Delta Band;
#X text 195 433 Theta Band;
#X text 222 413 Low Alpha Band;
#X text 251 392 High Alpha Band;
#X text 369 306 Mid Gamma Band;
#X text 337 328 Low Gamma Band;
#X text 307 351 High Beta Band;
#X text 279 371 Low Beta Band;
#X connect 0 0 15 0;
#X connect 0 1 2 0;
#X connect 0 2 16 0;
#X connect 0 3 17 0;
#X connect 0 4 18 0;
#X connect 0 5 19 0;
#X connect 0 6 20 0;
#X connect 0 7 21 0;
#X connect 0 8 22 0;
#X connect 0 9 23 0;
#X connect 0 10 24 0;
#X connect 1 0 0 0;
#X connect 3 0 0 0;
#X connect 4 0 0 0;
#X connect 5 0 0 0;
#X connect 6 0 0 0;
#X connect 7 0 0 0;
