#N canvas 710 239 450 300 10;
#X obj 97 55 f;
#X obj 152 55 + 1;
#X msg 97 30 0;
#X obj 40 37 t b f;
#X obj 98 81 mod \$2;
#X obj 35 108 tabwrite \$1;
#X obj 33 6 inlet;
#X obj 97 5 inlet;
#X connect 0 0 4 0;
#X connect 1 0 0 1;
#X connect 2 0 0 0;
#X connect 3 0 0 0;
#X connect 3 1 5 0;
#X connect 4 0 1 0;
#X connect 4 0 5 1;
#X connect 6 0 3 0;
#X connect 7 0 2 0;
