#N canvas 652 243 450 300 10;
#X obj 50 4 inlet;
#X obj 165 132 cnv 15 50 50 empty light2 empty 20 12 0 14 -262144 -66577
0;
#X msg 367 54 color 16;
#X msg 251 52 color 13;
#X obj 251 1 inlet;
#X obj 105 132 cnv 15 50 50 empty light1 empty 20 12 0 14 -258699 -66577
0;
#X obj 251 78 s light1;
#X obj 367 79 s light2;
#X msg 184 53 color 0;
#X msg 387 103 color 0;
#X obj 82 54 loadbang;
#X obj 64 247 outlet;
#X obj 270 251 outlet;
#X obj 239 216 spigot 0;
#X obj 66 215 spigot 0;
#X msg 237 124 1;
#X msg 342 144 1;
#X msg 251 163 0;
#X msg 361 211 0;
#X obj 251 26 mind_attention 75;
#X connect 0 0 14 0;
#X connect 0 0 13 0;
#X connect 2 0 7 0;
#X connect 3 0 6 0;
#X connect 4 0 19 0;
#X connect 8 0 6 0;
#X connect 9 0 7 0;
#X connect 10 0 8 0;
#X connect 10 0 9 0;
#X connect 13 0 12 0;
#X connect 14 0 11 0;
#X connect 15 0 14 1;
#X connect 16 0 13 1;
#X connect 17 0 13 1;
#X connect 18 0 14 1;
#X connect 19 0 3 0;
#X connect 19 0 9 0;
#X connect 19 0 15 0;
#X connect 19 0 17 0;
#X connect 19 1 2 0;
#X connect 19 1 8 0;
#X connect 19 1 16 0;
#X connect 19 1 18 0;
#X coords 0 -1 1 1 120 90 1 100 100;
