#N canvas 0 48 1364 702 10;
#X obj 345 11 cnv 15 450 100 empty empty empty 20 12 0 14 -204800 -66577
0;
#X msg 371 77 \; pd dsp \$1;
#X obj 371 47 tgl 15 0 empty empty empty 17 7 0 10 -262144 -1 -1 1
1;
#X obj 371 17 loadbang;
#X obj 6 8 cnv 15 315 210 empty empty empty 20 12 0 14 -233017 -66577
0;
#X obj 16 101 mindflex, f 42;
#X msg 166 71 stop;
#X msg 39 70 activate;
#X msg 16 12 connect_dev 10:14:07:01:11:67;
#X msg 110 71 bang, f 5;
#X obj 16 149 s raw;
#X obj 45 129 s att;
#X obj 161 190 s la;
#X obj 190 170 s ha;
#X obj 219 148 s lb;
#X obj 248 128 s hb;
#X msg 39 37 connect_dev 00:11:12:07:05:78;
#N canvas 0 50 450 250 (subpatch) 0;
#X array hadouken 47156 float 2;
#X coords 0 1 47156 -1 200 140 1 0 0;
#X restore 15 422 graph;
#N canvas 0 50 450 250 (subpatch) 0;
#X array quack 13849 float 2;
#X coords 0 1 13849 -1 200 140 1;
#X restore 13 256 graph;
#N canvas 0 48 1364 702 set_image 1;
#X obj 15 18 inlet;
#X obj 1039 101 loadbang;
#X obj 1039 28 loadbang;
#X obj 1039 75 soundfiler;
#X obj 1039 151 soundfiler;
#X msg 1039 49 read -resize sounds/quack.wav quack \;;
#X msg 1039 127 read -resize sounds/hadouken.wav hadouken \;;
#X obj 373 235 s filename;
#X obj 451 234 make_folder;
#X obj 1042 185 r raw;
#X obj 1098 273 r att;
#X obj 1063 237 s blink;
#X obj 1042 404 tabplay~ quack;
#X obj 1041 453 dac~;
#X obj 1155 405 tabplay~ hadouken;
#X obj 1042 298 mind_interface;
#N canvas 0 50 450 250 (subpatch) 0;
#X array sequence 8 float 3;
#A 0 1 0 0 0 1 0 1 1;
#X coords 0 1 8 0 200 140 1 0 0;
#X restore 807 22 graph;
#X obj 1106 490 s com;
#X msg 1106 457 0;
#X msg 1155 457 1;
#X obj 9 471 loadbang;
#X obj 12 224 r com;
#X obj 12 252 expr if($f1==sequence[$f2] \, 1 \, 0) \;;
#X obj 12 277 select 1;
#X obj 247 209 modcounter 8;
#X msg 723 29 \; c1 clean \; c2 clean \; c3 clean \; c4 clean \; c5
clean \; c6 clean \; c7 clean \; c0 clean;
#X msg 9 549 \; c1 size 1 1 \; c2 size 1 1 \; c3 size 1 1 \; c4 size
1 1 \; c5 size 1 1 \; c6 size 1 1 \; c7 size 1 1 \; c0 size 1 1;
#X obj 12 389 s next;
#X obj 247 183 r next;
#X obj 373 159 r name;
#X msg 373 207 symbol /home/feulo/pd-externals/mindflex/teste_attention/\$1
;
#X obj 373 184 symbol;
#X obj 12 304 t b b;
#X obj 44 325 f;
#X obj 723 5 r loop;
#X floatatom 261 252 5 0 0 0 - - -, f 5;
#N canvas 0 50 450 250 (subpatch) 0;
#X array err_counter 8 float 3;
#A 0 0 3 0 16 19 3 2 0;
#X coords 0 200 8 0 200 140 1 0 0;
#X restore 806 179 graph;
#X obj 164 317 expr $f1 \; err_counter[$f2] +1;
#X obj 164 294 bang;
#X obj 294 356 tabwrite err_counter;
#X msg 1028 630 file \$1;
#X obj 1028 528 r filename;
#X obj 62 304 r cnt;
#X obj 294 294 r cnt;
#X obj 431 329 r cnt;
#X obj 1028 654 mind_rec_att err.txt;
#X msg 1028 581 set \$1;
#X obj 1028 556 makefilename %s/test_%%d_err.txt;
#X obj 1028 605 makefilename not-set-yet;
#X obj 1217 588 r n_test;
#X obj 238 356 s n_err;
#X obj 265 230 s cnt;
#X msg 307 184 reset;
#X obj 307 158 r loop;
#X obj 9 508 t b b;
#X obj 244 14 inlet;
#X obj 470 17 inlet;
#X obj 938 431 spigot;
#X obj 977 411 tgl 15 0 empty empty empty 17 7 0 10 -262144 -1 -1 0
1;
#X obj 977 346 r cnt;
#X obj 977 375 select 7;
#X obj 906 347 r next;
#X msg 906 394 0;
#X obj 906 373 t b b;
#X obj 784 329 r cnt;
#X obj 745 377 spigot;
#X obj 784 354 tabread sequence;
#X obj 745 274 r blink;
#X obj 763 302 r att;
#X obj 745 352 f;
#X obj 745 484 acumulator;
#X obj 777 437 counter;
#X obj 745 405 t f b;
#X floatatom 777 464 5 0 0 0 - - -, f 5;
#X floatatom 745 515 5 0 0 0 - - -, f 5;
#X floatatom 745 592 5 0 0 0 - - -, f 5;
#X obj 745 561 /;
#X obj 670 392 r loop;
#X msg 670 420 reset;
#X obj 727 619 f;
#X floatatom 1177 305 5 0 0 0 - - -, f 5;
#X obj 886 612 f;
#X obj 904 587 r cnt;
#X obj 886 558 r next;
#X obj 886 636 tabread err_counter;
#N canvas 0 50 1364 702 recording 0;
#X obj 3 4 cnv 15 450 600 empty empty empty 20 12 0 14 -261682 -66577
0;
#X obj 6 102 mind_rec_att energy_low_beta_interface.txt;
#X obj 13 228 mind_rec_att energy_high_beta_interface.txt;
#X obj 11 348 mind_rec_att energy_low_alpha_interface.txt;
#X obj 13 469 mind_rec_att energy_high_alpha_interface.txt;
#X obj 17 591 mind_rec_att attention_interface.txt;
#X obj 6 76 r start;
#X obj 17 566 r start;
#X obj 13 444 r start;
#X obj 11 322 r start;
#X obj 13 203 r start;
#X obj 67 76 r lb;
#X obj 76 203 r hb;
#X obj 76 323 r la;
#X obj 74 444 r ha;
#X obj 77 565 r att;
#X text 149 619 Interface Data;
#X obj 472 8 cnv 15 570 680 empty empty empty 20 12 0 14 -204786 -66577
0;
#X obj 533 69 mind_energy;
#X obj 533 42 mind_filter low_beta;
#X obj 533 17 r raw;
#X obj 485 41 bng 15 250 50 0 empty empty empty 17 7 0 10 -262144 -1
-1;
#X obj 485 17 r att;
#X obj 533 100 mind_rec_att energy_low_beta_filtered.txt;
#X obj 533 184 mind_energy;
#X obj 533 132 r raw;
#X obj 485 156 bng 15 250 50 0 empty empty empty 17 7 0 10 -262144
-1 -1;
#X obj 485 132 r att;
#X obj 533 157 mind_filter high_beta;
#X obj 533 215 mind_rec_att energy_high_beta_filtered.txt;
#X obj 545 300 mind_energy;
#X obj 545 248 r raw;
#X obj 497 272 bng 15 250 50 0 empty empty empty 17 7 0 10 -262144
-1 -1;
#X obj 497 248 r att;
#X obj 544 416 mind_energy;
#X obj 544 364 r raw;
#X obj 496 388 bng 15 250 50 0 empty empty empty 17 7 0 10 -262144
-1 -1;
#X obj 496 364 r att;
#X obj 545 273 mind_filter low_alpha;
#X obj 545 331 mind_rec_att energy_low_alpha_filtered.txt;
#X obj 544 389 mind_filter high_alpha;
#X obj 544 447 mind_rec_att energy_high_alpha_filtered.txt;
#X obj 629 186 r start;
#X obj 624 70 r start;
#X obj 638 301 r start;
#X obj 632 416 r start;
#X obj 528 536 mind_energy;
#X obj 528 484 r raw;
#X obj 480 508 bng 15 250 50 0 empty empty empty 17 7 0 10 -262144
-1 -1;
#X obj 480 484 r att;
#X obj 527 653 mind_energy;
#X obj 527 601 r raw;
#X obj 479 625 bng 15 250 50 0 empty empty empty 17 7 0 10 -262144
-1 -1;
#X obj 479 601 r att;
#X obj 528 509 mind_filter beta;
#X obj 528 567 mind_rec_att energy_beta_filtered.txt;
#X obj 527 626 mind_filter alpha;
#X obj 527 684 mind_rec_att energy_alpha_filtered.txt;
#X obj 615 536 r start;
#X obj 622 653 r start;
#X msg 696 83 file \$1;
#X obj 1054 23 cnv 15 260 250 empty empty empty 20 12 0 14 -204800
-66577 0;
#X obj 1191 155 r blink;
#X obj 1267 137 r att;
#X obj 1059 249 mind_rec_att teste_blink.txt;
#X obj 1267 168 t b b;
#X msg 1267 201 0;
#X obj 1089 214 r start;
#X obj 1269 232 f;
#X obj 1191 185 f;
#X msg 1223 186 0;
#X obj 1191 215 + 1;
#X text 864 668 Filtered from RAW DATA;
#X text 1053 292 Eye Blink;
#X obj 1053 338 jmmmp/stoppuhr;
#X msg 1156 493 file \$1;
#X obj 1156 443 r filename;
#X obj 1156 470 makefilename %s/times.txt;
#X obj 1148 561 mind_rec_att times.txt;
#X obj 1148 419 spigot;
#X obj 1187 397 tgl 15 0 empty empty empty 17 7 0 10 -262144 -1 -1
0 1;
#X msg 1240 380 1;
#X obj 1240 294 r loop;
#X obj 1187 295 r time;
#X obj 1240 321 t b b;
#X obj 1187 321 t f b;
#X floatatom 1090 539 5 0 0 0 - - -, f 5;
#X msg 1059 132 file \$1;
#X obj 1059 30 r filename;
#X msg 1059 83 set \$1;
#X obj 1059 107 makefilename not-set-yet;
#X obj 1236 90 r n_test;
#X obj 1059 58 makefilename %s/test_%%d_blink.txt;
#X obj 697 2 r filename;
#X msg 697 42 set \$1;
#X obj 697 63 makefilename not-set-yet;
#X obj 889 46 r n_test;
#X msg 710 199 file \$1;
#X obj 710 118 r filename;
#X msg 710 158 set \$1;
#X obj 710 179 makefilename not-set-yet;
#X msg 701 315 file \$1;
#X obj 701 234 r filename;
#X msg 701 274 set \$1;
#X obj 701 295 makefilename not-set-yet;
#X msg 707 432 file \$1;
#X obj 707 349 r filename;
#X msg 707 389 set \$1;
#X obj 707 410 makefilename not-set-yet;
#X msg 685 550 file \$1;
#X obj 685 469 r filename;
#X msg 685 509 set \$1;
#X obj 685 530 makefilename not-set-yet;
#X obj 685 489 makefilename %s/test_%%d_energy_beta_filtered.txt;
#X msg 692 667 file \$1;
#X obj 692 586 r filename;
#X msg 692 626 set \$1;
#X obj 692 647 makefilename not-set-yet;
#X obj 692 606 makefilename %s/test_%%d_low_beta_filtered.txt;
#X msg 114 85 file \$1;
#X obj 114 4 r filename;
#X msg 114 44 set \$1;
#X obj 114 65 makefilename not-set-yet;
#X obj 665 22 makefilename %s/test_%%d_energy_low_beta_filtered.txt
;
#X obj 660 138 makefilename %s/test_%%d_energy_high_beta_filtered.txt
;
#X obj 659 254 makefilename %s/test_%%d_energy_low_alpha_filtered.txt
;
#X obj 650 369 makefilename %s/test_%%d_energy_high_alpha_filtered.txt
;
#X obj 69 24 makefilename %s/test_%%d_energy_low_beta_interface.txt
;
#X msg 115 206 file \$1;
#X obj 115 125 r filename;
#X msg 115 165 set \$1;
#X obj 115 186 makefilename not-set-yet;
#X obj 63 145 makefilename %s/test_%%d_energy_high_beta_interface.txt
;
#X msg 115 328 file \$1;
#X obj 115 247 r filename;
#X msg 115 287 set \$1;
#X obj 115 308 makefilename not-set-yet;
#X obj 64 267 makefilename %s/test_%%d_energy_low_alpha_interface.txt
;
#X msg 115 449 file \$1;
#X obj 115 368 r filename;
#X msg 115 408 set \$1;
#X obj 115 429 makefilename not-set-yet;
#X obj 57 388 makefilename %s/test_%%d_energy_high_alpha_interface.txt
;
#X msg 133 570 file \$1;
#X obj 133 489 r filename;
#X msg 133 529 set \$1;
#X obj 133 550 makefilename not-set-yet;
#X obj 109 509 makefilename %s/test_%%d_attention_interface.txt;
#X obj 1168 517 r record;
#X obj 1269 416 loadbang;
#X msg 1269 443 0;
#X obj 867 550 r n_test;
#X obj 889 278 r n_test;
#X obj 894 162 r n_test;
#X obj 883 630 r n_test;
#X obj 891 430 r n_test;
#X obj 310 48 r n_test;
#X obj 344 533 r n_test;
#X obj 340 412 r n_test;
#X obj 327 291 r n_test;
#X obj 321 169 r n_test;
#X connect 6 0 1 0;
#X connect 7 0 5 0;
#X connect 8 0 4 0;
#X connect 9 0 3 0;
#X connect 10 0 2 0;
#X connect 11 0 1 0;
#X connect 12 0 2 0;
#X connect 13 0 3 0;
#X connect 14 0 4 0;
#X connect 15 0 5 0;
#X connect 18 0 23 0;
#X connect 19 0 18 0;
#X connect 20 0 19 0;
#X connect 21 0 18 0;
#X connect 22 0 21 0;
#X connect 24 0 29 0;
#X connect 25 0 28 0;
#X connect 26 0 24 0;
#X connect 27 0 26 0;
#X connect 28 0 24 0;
#X connect 30 0 39 0;
#X connect 31 0 38 0;
#X connect 32 0 30 0;
#X connect 33 0 32 0;
#X connect 34 0 41 0;
#X connect 35 0 40 0;
#X connect 36 0 34 0;
#X connect 37 0 36 0;
#X connect 38 0 30 0;
#X connect 40 0 34 0;
#X connect 42 0 29 0;
#X connect 43 0 23 0;
#X connect 44 0 39 0;
#X connect 45 0 41 0;
#X connect 46 0 55 0;
#X connect 47 0 54 0;
#X connect 48 0 46 0;
#X connect 49 0 48 0;
#X connect 50 0 57 0;
#X connect 51 0 56 0;
#X connect 52 0 50 0;
#X connect 53 0 52 0;
#X connect 54 0 46 0;
#X connect 56 0 50 0;
#X connect 58 0 55 0;
#X connect 59 0 57 0;
#X connect 60 0 23 0;
#X connect 62 0 69 0;
#X connect 63 0 65 0;
#X connect 65 0 66 0;
#X connect 65 0 70 0;
#X connect 65 1 68 0;
#X connect 66 0 68 1;
#X connect 67 0 64 0;
#X connect 68 0 64 0;
#X connect 69 0 71 0;
#X connect 70 0 69 1;
#X connect 71 0 69 1;
#X connect 71 0 68 1;
#X connect 74 1 79 0;
#X connect 75 0 78 0;
#X connect 76 0 77 0;
#X connect 77 0 75 0;
#X connect 79 0 78 0;
#X connect 79 0 86 0;
#X connect 80 0 79 1;
#X connect 81 0 80 0;
#X connect 82 0 84 0;
#X connect 83 0 85 0;
#X connect 84 0 81 0;
#X connect 84 1 74 0;
#X connect 85 0 80 0;
#X connect 85 1 74 0;
#X connect 87 0 64 0;
#X connect 88 0 92 0;
#X connect 89 0 90 0;
#X connect 90 0 87 0;
#X connect 91 0 90 0;
#X connect 92 0 89 0;
#X connect 93 0 123 0;
#X connect 94 0 95 0;
#X connect 95 0 60 0;
#X connect 96 0 95 0;
#X connect 97 0 29 0;
#X connect 98 0 124 0;
#X connect 99 0 100 0;
#X connect 100 0 97 0;
#X connect 101 0 39 0;
#X connect 102 0 125 0;
#X connect 103 0 104 0;
#X connect 104 0 101 0;
#X connect 105 0 41 0;
#X connect 106 0 126 0;
#X connect 107 0 108 0;
#X connect 108 0 105 0;
#X connect 109 0 55 0;
#X connect 110 0 113 0;
#X connect 111 0 112 0;
#X connect 112 0 109 0;
#X connect 113 0 111 0;
#X connect 114 0 57 0;
#X connect 115 0 118 0;
#X connect 116 0 117 0;
#X connect 117 0 114 0;
#X connect 118 0 116 0;
#X connect 119 0 1 0;
#X connect 120 0 127 0;
#X connect 121 0 122 0;
#X connect 122 0 119 0;
#X connect 123 0 94 0;
#X connect 124 0 99 0;
#X connect 125 0 103 0;
#X connect 126 0 107 0;
#X connect 127 0 121 0;
#X connect 128 0 2 0;
#X connect 129 0 132 0;
#X connect 130 0 131 0;
#X connect 131 0 128 0;
#X connect 132 0 130 0;
#X connect 133 0 3 0;
#X connect 134 0 137 0;
#X connect 135 0 136 0;
#X connect 136 0 133 0;
#X connect 137 0 135 0;
#X connect 138 0 4 0;
#X connect 139 0 142 0;
#X connect 140 0 141 0;
#X connect 141 0 138 0;
#X connect 142 0 140 0;
#X connect 143 0 5 0;
#X connect 144 0 147 0;
#X connect 145 0 146 0;
#X connect 146 0 143 0;
#X connect 147 0 145 0;
#X connect 148 0 78 0;
#X connect 149 0 150 0;
#X connect 150 0 80 0;
#X connect 151 0 55 0;
#X connect 152 0 104 0;
#X connect 153 0 100 0;
#X connect 154 0 117 0;
#X connect 155 0 41 0;
#X connect 156 0 122 0;
#X connect 157 0 146 0;
#X connect 158 0 141 0;
#X connect 159 0 136 0;
#X connect 160 0 131 0;
#X restore 374 260 pd recording;
#X msg 335 472 file \$1;
#X obj 335 422 r filename;
#X obj 335 449 makefilename %s/threshold.txt;
#X obj 320 517 mind_rec_att threshold.txt;
#X obj 1155 272 r threshold;
#X obj 320 395 r threshold;
#X msg 106 537 \; pd-patch_experimento.pd obj 828 430 img score scores/score_1_gif.gif
\; pd-patch_experimento.pd obj 600 350 img c0 scores/check.gif \; pd-patch_experimento.pd
obj 800 350 img c1 scores/check.gif \; pd-patch_experimento.pd obj
1000 350 img c2 scores/check.gif \; pd-patch_experimento.pd obj 1200
350 img c3 scores/check.gif \; pd-patch_experimento.pd obj 600 575
img c4 scores/check.gif \; pd-patch_experimento.pd obj 800 575 img
c5 scores/check.gif \; pd-patch_experimento.pd obj 1000 575 img c6
scores/check.gif \; pd-patch_experimento.pd obj 1200 575 img c7 scores/check.gif
\;, f 63;
#X obj 1217 637 r start;
#X msg 938 480 \; time 0 \; start stop;
#X msg 244 44 \; score open scores/score_2_gif.gif \; sequence 0 1
0 0 1 1 0 1 0 \; loop bang \; err_counter 0 0 0 0 0 0 0 0 0 \; n_test
1 \; tresh bang \; start start;
#X msg 470 44 \; score open scores/score_3_gif.gif \; sequence 0 1
0 0 0 1 0 1 1 \; loop bang \; err_counter 0 0 0 0 0 0 0 0 0 \; n_test
2 \; start start;
#X msg 44 353 \; c\$1 open scores/check.gif;
#X obj 334 495 r record;
#X msg 836 505 \; record stop;
#X obj 836 479 spigot;
#X obj 865 434 select 2;
#X obj 895 457 tgl 15 0 empty empty empty 17 7 0 10 -262144 -1 -1 1
1;
#X obj 845 408 r n_test;
#X msg 1169 230 70;
#X obj 628 271 r cnt;
#X obj 589 343 spigot;
#X obj 628 296 tabread sequence;
#X obj 589 228 r blink;
#X obj 607 249 r att;
#X obj 589 318 f;
#X obj 589 450 acumulator;
#X obj 621 403 counter;
#X obj 589 371 t f b;
#X floatatom 621 430 5 0 0 0 - - -, f 5;
#X floatatom 589 481 5 0 0 0 - - -, f 5;
#X floatatom 589 558 5 0 0 0 - - -, f 5;
#X obj 589 527 /;
#X obj 514 358 r loop;
#X msg 514 386 reset;
#X obj 571 585 f;
#X obj 659 538 r tresh;
#X obj 628 319 == 0;
#X obj 571 612 s threshold_1;
#X obj 727 646 s threshold_2;
#X obj 572 675 s threshold;
#X obj 673 638 +;
#X obj 674 658 / 2;
#X obj 659 561 t b b;
#X msg 15 44 \; score open scores/score_1_gif.gif \; sequence 0 1 0
1 1 1 0 1 1 \; loop bang \; err_counter 0 0 0 0 0 0 0 0 0 \; n_test
0 \; start start \; record start \;;
#X msg 1247 232 50;
#X msg 1170 203 60;
#X obj 1042 212 mind_blink 500;
#X connect 0 0 129 0;
#X connect 1 0 6 0;
#X connect 2 0 5 0;
#X connect 5 0 3 0;
#X connect 6 0 4 0;
#X connect 9 0 132 0;
#X connect 10 0 15 1;
#X connect 12 0 13 0;
#X connect 12 0 13 1;
#X connect 14 0 13 0;
#X connect 14 0 13 1;
#X connect 15 0 12 0;
#X connect 15 0 18 0;
#X connect 15 1 14 0;
#X connect 15 1 19 0;
#X connect 18 0 17 0;
#X connect 19 0 17 0;
#X connect 20 0 54 0;
#X connect 21 0 22 0;
#X connect 22 0 23 0;
#X connect 23 0 32 0;
#X connect 23 1 38 0;
#X connect 24 0 22 1;
#X connect 24 0 35 0;
#X connect 24 0 51 0;
#X connect 28 0 24 0;
#X connect 29 0 31 0;
#X connect 30 0 7 0;
#X connect 30 0 8 0;
#X connect 31 0 30 0;
#X connect 32 0 27 0;
#X connect 32 1 33 0;
#X connect 33 0 97 0;
#X connect 34 0 25 0;
#X connect 37 1 39 0;
#X connect 37 1 50 0;
#X connect 38 0 37 0;
#X connect 40 0 45 0;
#X connect 41 0 47 0;
#X connect 42 0 33 1;
#X connect 43 0 37 1;
#X connect 44 0 39 1;
#X connect 46 0 48 0;
#X connect 47 0 46 0;
#X connect 48 0 40 0;
#X connect 49 0 48 0;
#X connect 52 0 24 0;
#X connect 53 0 52 0;
#X connect 54 0 26 0;
#X connect 54 1 92 0;
#X connect 55 0 95 0;
#X connect 56 0 96 0;
#X connect 57 0 94 0;
#X connect 57 0 100 0;
#X connect 58 0 57 1;
#X connect 59 0 60 0;
#X connect 60 0 58 0;
#X connect 61 0 63 0;
#X connect 62 0 58 0;
#X connect 63 0 62 0;
#X connect 63 1 57 0;
#X connect 64 0 66 0;
#X connect 65 0 72 0;
#X connect 66 0 65 1;
#X connect 67 0 69 0;
#X connect 68 0 69 1;
#X connect 69 0 65 0;
#X connect 70 0 74 0;
#X connect 71 0 73 0;
#X connect 72 0 70 0;
#X connect 72 1 71 0;
#X connect 73 0 76 1;
#X connect 74 0 76 0;
#X connect 75 0 79 1;
#X connect 76 0 75 0;
#X connect 77 0 78 0;
#X connect 78 0 70 0;
#X connect 78 0 71 0;
#X connect 79 0 124 0;
#X connect 79 0 126 1;
#X connect 81 0 84 0;
#X connect 82 0 81 1;
#X connect 83 0 81 0;
#X connect 84 0 45 0;
#X connect 86 0 89 0;
#X connect 87 0 88 0;
#X connect 88 0 86 0;
#X connect 90 0 15 2;
#X connect 90 0 80 0;
#X connect 91 0 89 0;
#X connect 93 0 45 0;
#X connect 98 0 89 0;
#X connect 100 0 99 0;
#X connect 101 0 102 0;
#X connect 102 0 100 1;
#X connect 103 0 101 0;
#X connect 104 0 15 2;
#X connect 105 0 107 0;
#X connect 106 0 113 0;
#X connect 107 0 122 0;
#X connect 108 0 110 0;
#X connect 109 0 110 1;
#X connect 110 0 106 0;
#X connect 111 0 115 0;
#X connect 112 0 114 0;
#X connect 113 0 111 0;
#X connect 113 1 112 0;
#X connect 114 0 117 1;
#X connect 115 0 117 0;
#X connect 116 0 120 1;
#X connect 117 0 116 0;
#X connect 118 0 119 0;
#X connect 119 0 111 0;
#X connect 119 0 112 0;
#X connect 120 0 123 0;
#X connect 120 0 126 0;
#X connect 121 0 128 0;
#X connect 122 0 106 1;
#X connect 126 0 127 0;
#X connect 127 0 125 0;
#X connect 128 0 120 0;
#X connect 128 1 79 0;
#X connect 130 0 15 2;
#X connect 131 0 15 2;
#X connect 132 0 11 0;
#X connect 132 0 15 0;
#X restore 578 88 pd set_image;
#X obj 578 19 bng 15 250 50 0 empty empty empty 17 7 0 10 -262144 -1
-1;
#X obj 459 90 s name;
#X obj 618 42 bng 15 250 50 0 empty empty empty 17 7 0 10 -262144 -1
-1;
#X obj 659 65 bng 15 250 50 0 empty empty empty 17 7 0 10 -262144 -1
-1;
#X text 604 18 Teste 1;
#X text 644 42 Teste 2;
#X text 684 64 Teste 3;
#X floatatom 1245 39 5 0 0 0 - - -, f 5;
#X floatatom 1137 39 5 0 0 0 - - -, f 5;
#X obj 1245 13 r threshold_2;
#X floatatom 1036 40 5 0 0 0 - - -, f 5;
#X obj 1137 13 r threshold_1;
#X obj 1036 14 r threshold;
#X msg 459 52 feulo;
#X connect 2 0 1 0;
#X connect 3 0 2 0;
#X connect 3 0 33 0;
#X connect 5 0 10 0;
#X connect 5 1 11 0;
#X connect 5 5 12 0;
#X connect 5 6 13 0;
#X connect 5 7 14 0;
#X connect 5 8 15 0;
#X connect 6 0 5 0;
#X connect 7 0 5 0;
#X connect 8 0 5 0;
#X connect 9 0 5 0;
#X connect 16 0 5 0;
#X connect 20 0 19 0;
#X connect 22 0 19 1;
#X connect 23 0 19 2;
#X connect 29 0 27 0;
#X connect 31 0 28 0;
#X connect 32 0 30 0;
#X connect 33 0 21 0;
