#N canvas 0 48 1364 702 10;
#X obj 705 298 mind_interface;
#X obj 705 197 r raw;
#X obj 845 227 r att;
#X obj 726 249 s blink;
#X obj 372 9 cnv 15 250 100 empty empty empty 20 12 0 14 -204800 -66577
0;
#X obj 489 91 s start;
#X msg 489 16 start, f 6;
#X msg 544 48 stop;
#X msg 398 74 \; pd dsp \$1;
#X obj 398 45 tgl 15 0 empty empty empty 17 7 0 10 -262144 -1 -1 1
1;
#X obj 398 14 loadbang;
#X obj 8 6 cnv 15 315 210 empty empty empty 20 12 0 14 -233017 -66577
0;
#X obj 16 101 mindflex, f 42;
#X msg 166 71 stop;
#X msg 39 70 activate;
#X msg 16 12 connect_dev 10:14:07:01:11:67;
#X msg 110 71 bang, f 5;
#X obj 16 149 s raw;
#X obj 45 129 s att;
#X obj 161 190 s la;
#X obj 190 170 s ha;
#X obj 219 148 s lb;
#X obj 248 128 s hb;
#X msg 39 37 connect_dev 00:11:12:07:05:78;
#N canvas 0 50 450 250 (subpatch) 0;
#X array hadouken 47156 float 2;
#X coords 0 1 47156 -1 200 140 1 0 0;
#X restore 289 489 graph;
#X obj 291 393 loadbang;
#N canvas 0 50 450 250 (subpatch) 0;
#X array quack 13849 float 2;
#X coords 0 1 13849 -1 200 140 1;
#X restore 49 488 graph;
#X obj 15 398 loadbang;
#X obj 705 416 tabplay~ quack;
#X obj 15 445 soundfiler;
#X obj 291 443 soundfiler;
#X obj 704 465 dac~;
#X obj 705 223 mind_blink 450;
#X msg 15 419 read -resize sounds/quack.wav quack \;;
#N canvas 0 29 1351 702 recording 0;
#X obj 3 4 cnv 15 450 600 empty empty empty 20 12 0 14 -261682 -66577
0;
#X obj 15 91 mind_rec_att energy_low_beta_interface.txt;
#X obj 13 193 mind_rec_att energy_high_beta_interface.txt;
#X obj 11 295 mind_rec_att energy_low_alpha_interface.txt;
#X obj 19 401 mind_rec_att energy_high_alpha_interface.txt;
#X obj 17 512 mind_rec_att attention_interface.txt;
#X obj 15 65 r start;
#X obj 17 487 r start;
#X obj 19 376 r start;
#X obj 11 269 r start;
#X obj 13 168 r start;
#X obj 76 65 r lb;
#X obj 76 168 r hb;
#X obj 76 270 r la;
#X obj 80 376 r ha;
#X obj 77 486 r att;
#X msg 121 64 file \$1;
#X obj 121 14 r filename;
#X obj 121 40 makefilename %s/energy_low_beta_interface.txt;
#X msg 119 168 file \$1;
#X obj 119 118 r filename;
#X obj 119 144 makefilename %s/energy_high_beta_interface.txt;
#X msg 123 270 file \$1;
#X obj 123 220 r filename;
#X obj 123 246 makefilename %s/energy_low_alpha_interface.txt;
#X msg 122 375 file \$1;
#X obj 122 325 r filename;
#X obj 122 351 makefilename %s/energy_high_alpha_interface.txt;
#X msg 126 485 file \$1;
#X obj 126 435 r filename;
#X obj 126 462 makefilename %s/attention_interface.txt;
#X text 154 577 Interface Data;
#X obj 472 8 cnv 15 570 680 empty empty empty 20 12 0 14 -204786 -66577
0;
#X obj 533 69 mind_energy;
#X obj 533 42 mind_filter low_beta;
#X obj 533 17 r raw;
#X obj 485 41 bng 15 250 50 0 empty empty empty 17 7 0 10 -262144 -1
-1;
#X obj 485 17 r att;
#X obj 533 100 mind_rec_att energy_low_beta_filtered.txt;
#X obj 533 184 mind_energy;
#X obj 533 132 r raw;
#X obj 485 156 bng 15 250 50 0 empty empty empty 17 7 0 10 -262144
-1 -1;
#X obj 485 132 r att;
#X obj 533 157 mind_filter high_beta;
#X obj 533 215 mind_rec_att energy_high_beta_filtered.txt;
#X obj 545 300 mind_energy;
#X obj 545 248 r raw;
#X obj 497 272 bng 15 250 50 0 empty empty empty 17 7 0 10 -262144
-1 -1;
#X obj 497 248 r att;
#X obj 544 408 mind_energy;
#X obj 544 356 r raw;
#X obj 496 380 bng 15 250 50 0 empty empty empty 17 7 0 10 -262144
-1 -1;
#X obj 496 356 r att;
#X obj 545 273 mind_filter low_alpha;
#X obj 545 331 mind_rec_att energy_low_alpha_filtered.txt;
#X obj 544 381 mind_filter high_alpha;
#X obj 544 439 mind_rec_att energy_high_alpha_filtered.txt;
#X obj 629 186 r start;
#X obj 624 70 r start;
#X obj 638 301 r start;
#X obj 632 408 r start;
#X obj 528 531 mind_energy;
#X obj 528 479 r raw;
#X obj 480 503 bng 15 250 50 0 empty empty empty 17 7 0 10 -262144
-1 -1;
#X obj 480 479 r att;
#X obj 527 641 mind_energy;
#X obj 527 589 r raw;
#X obj 479 613 bng 15 250 50 0 empty empty empty 17 7 0 10 -262144
-1 -1;
#X obj 479 589 r att;
#X obj 528 504 mind_filter beta;
#X obj 528 562 mind_rec_att energy_beta_filtered.txt;
#X obj 527 614 mind_filter alpha;
#X obj 527 672 mind_rec_att energy_alpha_filtered.txt;
#X obj 623 531 r start;
#X obj 622 641 r start;
#X msg 693 68 file \$1;
#X obj 693 18 r filename;
#X obj 693 45 makefilename %s/energy_low_beta_filtered.txt;
#X msg 698 185 file \$1;
#X obj 698 135 r filename;
#X obj 698 161 makefilename %s/energy_high_beta_filtered.txt;
#X msg 711 302 file \$1;
#X obj 711 252 r filename;
#X obj 711 279 makefilename %s/energy_low_alpha_filtered.txt;
#X msg 711 407 file \$1;
#X obj 711 357 r filename;
#X obj 711 384 makefilename %s/energy_high_alpha_filtered.txt;
#X msg 686 531 file \$1;
#X obj 686 481 r filename;
#X obj 686 508 makefilename %s/energy_beta_filtered.txt;
#X msg 687 640 file \$1;
#X obj 687 590 r filename;
#X obj 687 617 makefilename %s/energy_alpha_filtered.txt;
#X obj 1054 23 cnv 15 260 250 empty empty empty 20 12 0 14 -204800
-66577 0;
#X obj 1191 97 r blink;
#X obj 1267 79 r att;
#X obj 1109 199 mind_rec_att teste_blink.txt;
#X obj 1267 110 t b b;
#X msg 1267 143 0;
#X obj 1089 107 r start;
#X obj 1269 174 f;
#X obj 1191 127 f;
#X msg 1223 128 0;
#X obj 1191 157 + 1;
#X msg 1059 79 file \$1;
#X obj 1059 29 r filename;
#X obj 1059 53 makefilename %s/blink.txt;
#X text 864 668 Filtered from RAW DATA;
#X text 1103 242 Eye Blink;
#X connect 6 0 1 0;
#X connect 7 0 5 0;
#X connect 8 0 4 0;
#X connect 9 0 3 0;
#X connect 10 0 2 0;
#X connect 11 0 1 0;
#X connect 12 0 2 0;
#X connect 13 0 3 0;
#X connect 14 0 4 0;
#X connect 15 0 5 0;
#X connect 16 0 1 0;
#X connect 17 0 18 0;
#X connect 18 0 16 0;
#X connect 19 0 2 0;
#X connect 20 0 21 0;
#X connect 21 0 19 0;
#X connect 22 0 3 0;
#X connect 23 0 24 0;
#X connect 24 0 22 0;
#X connect 25 0 4 0;
#X connect 26 0 27 0;
#X connect 27 0 25 0;
#X connect 28 0 5 0;
#X connect 29 0 30 0;
#X connect 30 0 28 0;
#X connect 33 0 38 0;
#X connect 34 0 33 0;
#X connect 35 0 34 0;
#X connect 36 0 33 0;
#X connect 37 0 36 0;
#X connect 39 0 44 0;
#X connect 40 0 43 0;
#X connect 41 0 39 0;
#X connect 42 0 41 0;
#X connect 43 0 39 0;
#X connect 45 0 54 0;
#X connect 46 0 53 0;
#X connect 47 0 45 0;
#X connect 48 0 47 0;
#X connect 49 0 56 0;
#X connect 50 0 55 0;
#X connect 51 0 49 0;
#X connect 52 0 51 0;
#X connect 53 0 45 0;
#X connect 55 0 49 0;
#X connect 57 0 44 0;
#X connect 58 0 38 0;
#X connect 59 0 54 0;
#X connect 60 0 56 0;
#X connect 61 0 70 0;
#X connect 62 0 69 0;
#X connect 63 0 61 0;
#X connect 64 0 63 0;
#X connect 65 0 72 0;
#X connect 66 0 71 0;
#X connect 67 0 65 0;
#X connect 68 0 67 0;
#X connect 69 0 61 0;
#X connect 71 0 65 0;
#X connect 73 0 70 0;
#X connect 74 0 72 0;
#X connect 75 0 38 0;
#X connect 76 0 77 0;
#X connect 77 0 75 0;
#X connect 78 0 44 0;
#X connect 79 0 80 0;
#X connect 80 0 78 0;
#X connect 81 0 54 0;
#X connect 82 0 83 0;
#X connect 83 0 81 0;
#X connect 84 0 56 0;
#X connect 85 0 86 0;
#X connect 86 0 84 0;
#X connect 87 0 70 0;
#X connect 88 0 89 0;
#X connect 89 0 87 0;
#X connect 90 0 72 0;
#X connect 91 0 92 0;
#X connect 92 0 90 0;
#X connect 94 0 101 0;
#X connect 95 0 97 0;
#X connect 97 0 98 0;
#X connect 97 0 102 0;
#X connect 97 1 100 0;
#X connect 98 0 100 1;
#X connect 99 0 96 0;
#X connect 100 0 96 0;
#X connect 101 0 103 0;
#X connect 102 0 101 1;
#X connect 103 0 101 1;
#X connect 103 0 100 1;
#X connect 104 0 96 0;
#X connect 105 0 106 0;
#X connect 106 0 104 0;
#X restore 18 314 pd recording;
#X obj 18 290 s filename;
#X obj 100 291 make_folder;
#X msg 18 249 symbol /home/feulo/pd-externals/mindflex/teste_attention/feulo_1
;
#X msg 845 253 50;
#X msg 845 276 75;
#X msg 291 419 read -resize sounds/hadouken.wav hadouken \;;
#X obj 818 417 tabplay~ hadouken;
#X obj 1103 73 jmmmp/stoppuhr;
#X floatatom 1198 163 5 0 0 0 - - -, f 5;
#X floatatom 1103 173 5 0 0 0 - - -, f 5;
#X msg 573 626 file \$1;
#X obj 573 566 r filename;
#X obj 573 657 mind_sequence sequence.txt;
#X obj 573 596 makefilename %s/sequence.txt;
#X msg 838 556 seq HHQQHQ;
#X connect 0 0 28 0;
#X connect 0 1 41 0;
#X connect 1 0 32 0;
#X connect 2 0 0 1;
#X connect 6 0 5 0;
#X connect 7 0 5 0;
#X connect 9 0 8 0;
#X connect 10 0 9 0;
#X connect 12 0 17 0;
#X connect 12 1 18 0;
#X connect 12 5 19 0;
#X connect 12 6 20 0;
#X connect 12 7 21 0;
#X connect 12 8 22 0;
#X connect 13 0 12 0;
#X connect 14 0 12 0;
#X connect 15 0 12 0;
#X connect 16 0 12 0;
#X connect 23 0 12 0;
#X connect 25 0 40 0;
#X connect 27 0 33 0;
#X connect 28 0 31 0;
#X connect 28 0 31 1;
#X connect 32 0 0 0;
#X connect 32 0 3 0;
#X connect 33 0 29 0;
#X connect 37 0 35 0;
#X connect 37 0 36 0;
#X connect 38 0 0 2;
#X connect 39 0 0 2;
#X connect 40 0 30 0;
#X connect 41 0 31 0;
#X connect 41 0 31 1;
#X connect 42 0 44 0;
#X connect 42 1 43 0;
#X connect 45 0 47 0;
#X connect 46 0 48 0;
#X connect 48 0 45 0;
#X connect 49 0 47 0;
